<?xml version="1.0" encoding="UTF-8" standalone="no"?>
<!DOCTYPE svg PUBLIC "-//W3C//DTD SVG 1.1//EN" "http://www.w3.org/Graphics/SVG/1.1/DTD/svg11.dtd">
<svg width="100%" height="100%" viewBox="0 0 564 564" version="1.1" xmlns="http://www.w3.org/2000/svg" xmlns:xlink="http://www.w3.org/1999/xlink" xml:space="preserve" xmlns:serif="http://www.serif.com/" style="fill-rule:evenodd;clip-rule:evenodd;stroke-linejoin:round;stroke-miterlimit:2;">
    <g id="white" transform="matrix(0.498768,0,0,0.498768,-169.681,22.8597)">
        <g transform="matrix(18.7664,0,0,1.17396,-4968.71,-199.88)">
            <g id="WARE">
                <g>
                    <path d="M294.621,1044.28C294.518,1044.28 294.436,1043.94 294.374,1043.28C294.312,1042.61 294.276,1041.93 294.266,1041.24L293.555,990.397L293.555,990.157C293.555,989.678 293.572,989.266 293.606,988.92C293.639,988.574 293.679,988.401 293.725,988.401L295.162,988.401C295.332,988.401 295.425,989.12 295.44,990.556L295.703,1013.07L296.019,1003.09C296.03,1002.72 296.053,1002.24 296.089,1001.65C296.125,1001.07 296.189,1000.77 296.282,1000.77L297.07,1000.77C297.163,1000.77 297.227,1001.07 297.263,1001.65C297.299,1002.24 297.322,1002.72 297.333,1003.09L297.649,1012.99L297.912,990.556C297.927,989.12 298.02,988.401 298.19,988.401L299.627,988.401C299.673,988.401 299.713,988.574 299.746,988.92C299.78,989.266 299.797,989.678 299.797,990.157L299.797,990.397L299.086,1041.24C299.081,1041.93 299.046,1042.61 298.982,1043.28C298.917,1043.94 298.834,1044.28 298.731,1044.28L297.626,1044.28C297.523,1044.28 297.447,1044 297.398,1043.44C297.349,1042.88 297.32,1042.44 297.309,1042.12L296.676,1025.76L296.043,1042.12C296.032,1042.44 296.003,1042.88 295.954,1043.44C295.905,1044 295.829,1044.28 295.726,1044.28L294.621,1044.28Z" style="fill:rgb(56,64,56);fill-rule:nonzero;"/>
                    <path d="M305.799,1044.28C305.753,1044.28 305.713,1044.1 305.68,1043.76C305.646,1043.41 305.629,1043 305.629,1042.52C305.629,1042.31 305.632,1042.12 305.637,1041.96L307.36,991.035C307.375,990.45 307.411,989.865 307.468,989.279C307.524,988.694 307.604,988.401 307.707,988.401L309.383,988.401C309.486,988.401 309.566,988.694 309.623,989.279C309.679,989.865 309.715,990.45 309.731,991.035L311.453,1041.96C311.459,1042.12 311.461,1042.31 311.461,1042.52C311.461,1043 311.444,1043.41 311.411,1043.76C311.377,1044.1 311.338,1044.28 311.291,1044.28L309.862,1044.28C309.764,1044.28 309.694,1044.05 309.65,1043.6C309.606,1043.14 309.576,1042.7 309.561,1042.28L309.376,1037.01L307.715,1037.01L307.53,1042.28C307.514,1042.7 307.486,1043.14 307.445,1043.6C307.403,1044.05 307.331,1044.28 307.228,1044.28L305.799,1044.28ZM308.109,1021.45L308.982,1021.45L308.541,1006.6L308.109,1021.45Z" style="fill:rgb(56,64,56);fill-rule:nonzero;"/>
                    <path d="M317.83,1044.28C317.774,1044.28 317.725,1044.06 317.683,1043.64C317.642,1043.21 317.622,1042.7 317.622,1042.12L317.622,990.556C317.622,989.971 317.642,989.466 317.683,989.04C317.725,988.614 317.774,988.401 317.83,988.401L320.117,988.401C320.858,988.401 321.437,990.131 321.855,993.59C322.272,997.048 322.48,1001.78 322.48,1007.8C322.48,1011.36 322.402,1014.46 322.245,1017.1C322.088,1019.73 321.888,1021.85 321.646,1023.44L322.596,1041.64C322.611,1041.96 322.619,1042.25 322.619,1042.52C322.619,1043 322.602,1043.41 322.569,1043.76C322.536,1044.1 322.496,1044.28 322.449,1044.28L320.866,1044.28C320.763,1044.28 320.686,1044.01 320.634,1043.48C320.583,1042.94 320.549,1042.49 320.534,1042.12L319.869,1026.87L319.553,1026.87L319.553,1042.12C319.553,1042.7 319.532,1043.21 319.491,1043.64C319.45,1044.06 319.401,1044.28 319.344,1044.28L317.83,1044.28ZM319.553,1011.71L320.117,1011.71C320.235,1011.71 320.324,1011.3 320.383,1010.47C320.442,1009.65 320.472,1008.7 320.472,1007.64C320.472,1006.57 320.445,1005.58 320.391,1004.64C320.337,1003.71 320.245,1003.25 320.117,1003.25L319.553,1003.25L319.553,1011.71Z" style="fill:rgb(56,64,56);fill-rule:nonzero;"/>
                    <path d="M329.262,1044.28C329.205,1044.28 329.156,1044.06 329.115,1043.64C329.074,1043.21 329.053,1042.7 329.053,1042.12L329.053,990.556C329.053,989.971 329.074,989.466 329.115,989.04C329.156,988.614 329.205,988.401 329.262,988.401L333.224,988.401C333.281,988.401 333.33,988.614 333.371,989.04C333.412,989.466 333.433,989.971 333.433,990.556L333.433,1001.81C333.433,1002.4 333.412,1002.9 333.371,1003.33C333.33,1003.75 333.281,1003.97 333.224,1003.97L330.907,1003.97L330.907,1009L333.055,1009C333.111,1009 333.16,1009.21 333.201,1009.63C333.242,1010.06 333.263,1010.56 333.263,1011.15L333.263,1021.53C333.263,1022.11 333.242,1022.62 333.201,1023.04C333.16,1023.47 333.111,1023.68 333.055,1023.68L330.907,1023.68L330.907,1028.71L333.286,1028.71C333.343,1028.71 333.392,1028.92 333.433,1029.35C333.474,1029.77 333.495,1030.28 333.495,1030.87L333.495,1042.12C333.495,1042.7 333.474,1043.21 333.433,1043.64C333.392,1044.06 333.343,1044.28 333.286,1044.28L329.262,1044.28Z" style="fill:rgb(56,64,56);fill-rule:nonzero;"/>
                </g>
            </g>
        </g>
        <g id="GHOUL" transform="matrix(1,0,0,1,119.96,-72.1911)">
            <g transform="matrix(0.955663,-0.307453,0.221216,0.975225,-288.399,336.949)">
                <path d="M619.043,850.599C619.043,850.599 581.445,849.831 562.013,849.216C542.58,848.602 523.57,847.219 504.982,845.069C502.831,844.761 500.412,844.492 497.723,844.262C495.035,844.032 492.615,843.532 490.465,842.764C486.01,841.074 482.515,839.193 479.98,837.119C477.446,835.045 475.487,832.664 474.104,829.976C472.722,827.287 471.723,824.292 471.109,820.989C470.494,817.686 469.957,813.961 469.496,809.813C468.113,799.06 467.038,788.268 466.27,777.438C465.502,766.608 465.118,755.739 465.118,744.833C465.118,742.836 465.156,740.416 465.233,737.574C465.31,734.732 465.463,731.775 465.694,728.703C465.924,725.63 466.27,722.712 466.731,719.946C467.192,717.181 467.806,714.877 468.574,713.034C472.261,705.045 479.159,693.822 486.302,688.983C493.445,684.144 499.836,685.19 508.438,682.502C517.041,679.814 525.912,678.047 535.053,677.202C544.193,676.357 552.603,675.935 560.284,675.935C576.721,675.935 593.159,677.548 609.596,680.774L616.356,722.407L611.439,730.085C595.77,725.169 579.563,722.712 562.819,722.712C559.747,722.712 555.676,722.865 550.606,723.172C545.537,723.48 540.352,724.056 535.053,724.901C529.753,725.745 524.798,726.974 520.19,728.587C515.581,730.2 512.355,732.389 510.512,735.155C509.59,736.537 508.784,738.457 508.092,740.915C507.401,743.373 506.864,745.946 506.479,748.635C506.095,751.323 505.827,753.973 505.673,756.584C505.519,759.196 505.443,761.347 505.443,763.036C505.443,766.57 505.711,770.756 506.249,775.595C506.787,780.434 507.44,785.388 508.208,790.457C508.976,795.527 509.898,800.366 510.973,804.974C512.048,809.583 513.2,813.346 514.429,816.265L555.215,816.265L553.141,771.793L558.058,764.114C558.058,764.114 576.13,772.894 585.055,772.83C595.732,772.753 606.37,772.714 616.969,772.714C618.045,785.772 618.659,798.753 618.813,811.657C618.929,821.438 623.96,842.919 623.96,842.919L619.043,850.599Z" style="fill:rgb(9,250,142);"/>
            </g>
            <g transform="matrix(1,0.0889903,0,1,-24.626,-51.039)">
                <path d="M674.669,995.401L628.814,996.553C628.507,986.568 628.276,976.66 628.122,966.828C627.969,956.996 627.738,947.088 627.431,937.103L584.111,939.177C583.957,940.713 583.88,942.211 583.88,943.67L583.88,947.933C583.88,956.536 584.226,965.1 584.917,973.626C585.317,978.557 591.106,989.732 591.106,989.732L587.106,999.088C587.106,999.088 580.923,999.357 577.774,999.434C574.625,999.51 571.514,999.549 568.442,999.549C562.451,999.549 556.421,999.434 550.353,999.203C544.285,998.973 538.256,998.857 532.265,998.857C532.572,984.571 532.956,970.438 533.417,956.459C533.878,942.48 534.262,928.347 534.569,914.06C534.876,900.081 535.068,886.255 535.145,872.583C535.222,858.911 535.491,831.337 535.491,831.337L539.491,821.981L573.972,831.337C575.201,842.858 576.046,854.341 576.507,865.786C576.968,877.23 577.659,888.713 578.581,900.234C585.954,900.081 593.251,900.004 600.471,900.004C607.691,900.004 615.065,899.927 622.592,899.774L624.897,825.115L628.898,815.761C628.898,815.761 635.419,824.885 637.57,824.885C643.715,824.885 649.744,825.038 655.659,825.346C661.573,825.653 667.526,826.344 673.517,827.419C674.285,855.532 674.592,883.528 674.438,911.41C674.299,936.637 678.668,986.044 678.668,986.044L674.669,995.401Z" style="fill:rgb(9,250,142);fill-rule:nonzero;"/>
            </g>
            <g transform="matrix(1.17554,0,0,1,-157.952,11.0005)">
                <path d="M899.797,897.7L899.797,903.576C899.797,905.496 899.72,907.378 899.566,909.221C899.412,910.757 899.22,913.446 898.99,917.286C898.76,921.127 898.452,925.543 898.068,930.536C897.684,935.528 897.223,940.79 896.686,946.32C896.148,951.85 895.534,956.958 894.842,961.643C894.151,966.329 893.421,970.361 892.653,973.741C891.885,977.12 891.117,979.194 890.349,979.962C885.74,984.571 880.249,987.989 873.873,990.216C867.498,992.444 860.854,993.942 853.941,994.71C847.029,995.478 840.116,995.785 833.203,995.631C826.29,995.478 819.838,995.401 813.847,995.401C811.85,995.401 808.47,995.363 803.708,995.286C798.946,995.209 793.531,995.094 787.463,994.94C781.395,994.787 775.058,994.518 768.453,994.134C761.847,993.75 755.664,993.212 749.903,992.521C744.143,991.829 739.15,990.984 734.926,989.986C730.701,988.987 728.051,987.72 726.976,986.184C725.747,984.494 724.672,982.651 723.75,980.654C722.828,978.657 721.983,976.736 721.215,974.893C719.218,969.824 717.375,964.409 715.685,958.648C713.995,952.887 712.574,946.973 711.422,940.905C710.27,934.837 709.348,928.807 708.657,922.816C707.966,916.825 707.62,911.141 707.62,905.765C707.62,902.846 707.85,899.044 708.311,894.359C708.772,889.673 709.387,884.604 710.155,879.15C710.923,873.697 711.844,868.128 712.92,862.444C713.995,856.76 715.186,851.461 716.491,846.545C717.797,841.629 719.218,837.366 720.754,833.756C722.291,830.146 723.98,827.727 725.824,826.498C727.36,825.422 730.202,824.424 734.35,823.502C738.497,822.58 743.336,821.774 748.866,821.083C754.397,820.391 760.311,819.777 766.609,819.239C772.908,818.702 778.899,818.241 784.583,817.857C790.267,817.473 795.413,817.204 800.021,817.05C804.63,816.897 808.01,816.82 810.16,816.82C813.079,816.82 817.035,816.973 822.027,817.281C827.02,817.588 832.435,818.087 838.272,818.778C844.11,819.47 850.024,820.315 856.015,821.313C862.006,822.312 867.575,823.502 872.721,824.885C877.867,826.267 882.284,827.803 885.971,829.493C889.658,831.183 891.962,833.026 892.884,835.023C893.652,836.713 894.381,839.133 895.073,842.282C895.764,845.431 896.34,849.003 896.801,852.997C897.262,856.991 897.684,861.215 898.068,865.67C898.452,870.125 898.76,874.388 898.99,878.459C899.22,882.53 899.412,886.255 899.566,889.635C899.72,893.014 899.797,895.703 899.797,897.7ZM858.55,905.304C858.55,902.232 858.396,898.967 858.089,895.511C857.782,892.054 856.783,889.02 855.094,886.409C853.865,884.565 850.907,883.106 846.222,882.031C841.537,880.955 836.391,880.187 830.783,879.726C825.176,879.266 819.761,878.997 814.538,878.92C809.315,878.843 805.628,878.805 803.478,878.805C801.788,878.805 798.831,878.958 794.606,879.266C790.382,879.573 785.927,880.072 781.242,880.763C776.556,881.455 772.216,882.3 768.222,883.298C764.228,884.297 761.77,885.487 760.849,886.87C759.927,887.945 759.197,889.98 758.66,892.976C758.122,895.972 757.661,899.198 757.277,902.654C756.893,906.11 756.624,909.413 756.471,912.562C756.317,915.712 756.24,917.977 756.24,919.36C756.24,920.589 756.279,922.432 756.355,924.89C756.432,927.348 756.624,929.883 756.931,932.494C757.239,935.106 757.584,937.564 757.968,939.868C758.352,942.172 758.928,943.862 759.697,944.937C760.157,945.705 761.54,946.397 763.844,947.011C766.149,947.626 768.952,948.202 772.255,948.739C775.558,949.277 779.052,949.7 782.739,950.007C786.426,950.314 789.998,950.583 793.454,950.813C796.911,951.044 799.983,951.197 802.671,951.274C805.36,951.351 807.241,951.389 808.317,951.389C810.16,951.389 813.348,951.236 817.88,950.929C822.411,950.621 827.173,950.122 832.166,949.431C837.159,948.739 841.767,947.895 845.992,946.896C850.216,945.898 852.943,944.707 854.172,943.324C855.094,942.249 855.862,939.983 856.476,936.527C857.091,933.07 857.551,929.307 857.859,925.236C858.166,921.165 858.358,917.248 858.435,913.484C858.512,909.72 858.55,906.994 858.55,905.304Z" style="fill:rgb(2,250,142);fill-rule:nonzero;"/>
            </g>
            <g transform="matrix(1,-0.112745,0,1,-4.067,117.033)">
                <path d="M1102.34,920.051C1102.34,928.807 1102.15,937.487 1101.77,946.09C1101.38,954.692 1100.58,963.372 1099.35,972.128C1096.89,973.971 1094.43,975.699 1091.97,977.312C1089.52,978.925 1086.98,980.654 1084.37,982.497C1082.22,983.88 1079.88,985.454 1077.34,987.221C1074.81,988.987 1072.16,990.716 1069.39,992.405C1066.63,994.095 1063.82,995.593 1060.98,996.899C1058.14,998.205 1055.49,999.088 1053.03,999.549C1050.73,1000.16 1047.65,1000.43 1043.81,1000.36C1039.97,1000.28 1036.75,1000.24 1034.14,1000.24C1027.68,1000.55 1021.23,1000.78 1014.78,1000.93C1008.33,1001.09 1001.72,1001.16 994.963,1001.16C991.891,1001.16 988.357,1001.2 984.363,1001.28C980.369,1001.35 976.759,1001.01 973.533,1000.24C972.612,1000.09 971.075,999.357 968.925,998.051C966.774,996.745 964.355,995.132 961.666,993.212C958.978,991.292 956.174,989.218 953.256,986.99C950.337,984.763 947.533,982.612 944.845,980.538C942.157,978.465 939.852,976.621 937.932,975.008C936.012,973.395 934.668,972.281 933.9,971.667C933.71,969.654 929.918,959.117 929.918,959.117C929.918,959.117 932.461,953.428 932.172,947.357C931.788,939.292 931.595,931.189 931.595,923.047C931.595,907.224 932.172,891.555 933.324,876.04C934.476,860.524 935.743,844.932 937.126,829.263L980.595,815.658L984.594,828.111C983.058,837.942 981.982,848.35 981.368,859.334C980.753,870.317 980.446,880.879 980.446,891.017C980.446,892.707 980.523,895.664 980.677,899.889C980.83,904.113 981.137,908.607 981.598,913.369C982.059,918.131 982.635,922.509 983.326,926.503C984.018,930.497 984.901,933.109 985.976,934.338C986.437,934.799 987.628,935.221 989.548,935.605C991.468,935.989 993.773,936.335 996.461,936.642C999.149,936.949 1002.03,937.18 1005.1,937.333C1008.17,937.487 1011.09,937.602 1013.86,937.679C1016.62,937.756 1019.08,937.833 1021.23,937.909C1023.38,937.986 1024.92,938.025 1025.84,938.025L1029.76,938.025C1031.6,938.025 1033.48,937.986 1035.4,937.909C1037.32,937.833 1039.13,937.717 1040.82,937.564C1042.51,937.41 1043.66,937.103 1044.28,936.642C1046.12,935.413 1047.5,932.418 1048.42,927.655C1049.34,922.893 1050.04,917.67 1050.5,911.986C1050.96,906.302 1051.19,900.849 1051.19,895.626L1051.19,884.335C1051.19,880.802 1051.23,877.269 1051.3,873.735C1051.38,870.202 1051.42,866.669 1051.42,863.136C1051.42,855.916 1051.34,848.811 1051.19,841.821C1051.03,834.831 1050.8,827.727 1050.5,820.507C1053.72,820.814 1056.91,821.006 1060.06,821.083C1063.21,821.159 1066.4,821.198 1069.62,821.198C1073.46,821.198 1077.26,821.121 1081.03,820.967C1083.61,820.862 1088.2,807.135 1088.2,807.135L1092.2,819.585C1092.2,819.585 1097.93,852.651 1099.69,869.472C1101.46,886.294 1102.34,903.153 1102.34,920.051Z" style="fill:rgb(9,250,142);fill-rule:nonzero;"/>
            </g>
            <g transform="matrix(0.989,-0.147918,0.147918,0.989,-127.419,183.304)">
                <path d="M1249.15,990.131C1230.87,991.513 1209.91,993.02 1191.86,994.249C1173.81,995.478 1137.37,997.705 1137.37,997.705L1135.25,985.168C1135.25,985.168 1135.9,933.974 1135.52,910.258C1135.06,881.301 1134.22,852.075 1132.99,822.58C1143.28,822.427 1153.42,822.12 1163.41,821.659C1170.16,821.347 1191.41,807.356 1191.41,807.356L1194.96,820.02C1194.96,820.02 1191.7,842.794 1190.24,854.239C1188.78,865.683 1187.66,877.166 1186.9,888.688C1186.28,898.366 1185.78,908.005 1185.4,917.606C1185.02,927.207 1184.67,936.847 1184.36,946.525C1194.5,946.832 1203.15,946.781 1213.06,946.781C1220.43,946.781 1240.73,934.797 1240.73,934.797L1245.7,947.041L1249.15,990.131Z" style="fill:rgb(2,250,142);fill-rule:nonzero;"/>
            </g>
            <g>
                <g transform="matrix(0.955663,-0.307453,0.221216,0.975225,-285.399,327.949)">
                    <path d="M619.043,850.599C600.456,850.292 581.445,849.831 562.013,849.216C542.58,848.602 523.57,847.219 504.982,845.069C502.831,844.761 500.412,844.492 497.723,844.262C495.035,844.032 492.615,843.532 490.465,842.764C486.01,841.074 482.515,839.193 479.98,837.119C477.446,835.045 475.487,832.664 474.104,829.976C472.722,827.287 471.723,824.292 471.109,820.989C470.494,817.686 469.957,813.961 469.496,809.813C468.113,799.06 467.038,788.268 466.27,777.438C465.502,766.608 465.118,755.739 465.118,744.833C465.118,742.836 465.156,740.416 465.233,737.574C465.31,734.732 465.463,731.775 465.694,728.703C465.924,725.63 466.27,722.712 466.731,719.946C467.192,717.181 467.806,714.877 468.574,713.034C472.261,705.045 477.676,698.632 484.819,693.793C491.963,688.954 499.836,685.19 508.438,682.502C517.041,679.814 525.912,678.047 535.053,677.202C544.193,676.357 552.603,675.935 560.284,675.935C576.721,675.935 593.159,677.548 609.596,680.774L611.439,730.085C595.77,725.169 579.563,722.712 562.819,722.712C559.747,722.712 555.676,722.865 550.606,723.172C545.537,723.48 540.352,724.056 535.053,724.901C529.753,725.745 524.798,726.974 520.19,728.587C515.581,730.2 512.355,732.389 510.512,735.155C509.59,736.537 508.784,738.457 508.092,740.915C507.401,743.373 506.864,745.946 506.479,748.635C506.095,751.323 505.827,753.973 505.673,756.584C505.519,759.196 505.443,761.347 505.443,763.036C505.443,766.57 505.711,770.756 506.249,775.595C506.787,780.434 507.44,785.388 508.208,790.457C508.976,795.527 509.898,800.366 510.973,804.974C512.048,809.583 513.2,813.346 514.429,816.265L555.215,816.265L553.141,771.793C563.741,772.561 574.379,772.906 585.055,772.83C595.732,772.753 606.37,772.714 616.969,772.714C618.045,785.772 618.659,798.753 618.813,811.657C618.967,824.56 619.043,837.541 619.043,850.599Z" style="fill:rgb(56,64,56);"/>
                </g>
                <g transform="matrix(1,0.0889903,0,1,-20.626,-60.039)">
                    <path d="M674.669,995.401L628.814,996.553C628.507,986.568 628.276,976.66 628.122,966.828C627.969,956.996 627.738,947.088 627.431,937.103L584.111,939.177C583.957,940.713 583.88,942.211 583.88,943.67L583.88,947.933C583.88,956.536 584.226,965.1 584.917,973.626C585.609,982.151 586.338,990.639 587.106,999.088C584.034,999.241 580.923,999.357 577.774,999.434C574.625,999.51 571.514,999.549 568.442,999.549C562.451,999.549 556.421,999.434 550.353,999.203C544.285,998.973 538.256,998.857 532.265,998.857C532.572,984.571 532.956,970.438 533.417,956.459C533.878,942.48 534.262,928.347 534.569,914.06C534.876,900.081 535.068,886.255 535.145,872.583C535.222,858.911 535.337,845.162 535.491,831.337L573.972,831.337C575.201,842.858 576.046,854.341 576.507,865.786C576.968,877.23 577.659,888.713 578.581,900.234C585.954,900.081 593.251,900.004 600.471,900.004C607.691,900.004 615.065,899.927 622.592,899.774L624.897,825.115C627.047,824.961 629.159,824.885 631.233,824.885L637.57,824.885C643.715,824.885 649.744,825.038 655.659,825.346C661.573,825.653 667.526,826.344 673.517,827.419C674.285,855.532 674.592,883.528 674.438,911.41C674.285,939.292 674.362,967.289 674.669,995.401Z" style="fill:rgb(56,64,56);fill-rule:nonzero;"/>
                </g>
                <g transform="matrix(1.17554,0,0,1,-157.952,0)">
                    <path d="M899.797,897.7L899.797,903.576C899.797,905.496 899.72,907.378 899.566,909.221C899.412,910.757 899.22,913.446 898.99,917.286C898.76,921.127 898.452,925.543 898.068,930.536C897.684,935.528 897.223,940.79 896.686,946.32C896.148,951.85 895.534,956.958 894.842,961.643C894.151,966.329 893.421,970.361 892.653,973.741C891.885,977.12 891.117,979.194 890.349,979.962C885.74,984.571 880.249,987.989 873.873,990.216C867.498,992.444 860.854,993.942 853.941,994.71C847.029,995.478 840.116,995.785 833.203,995.631C826.29,995.478 819.838,995.401 813.847,995.401C811.85,995.401 808.47,995.363 803.708,995.286C798.946,995.209 793.531,995.094 787.463,994.94C781.395,994.787 775.058,994.518 768.453,994.134C761.847,993.75 755.664,993.212 749.903,992.521C744.143,991.829 739.15,990.984 734.926,989.986C730.701,988.987 728.051,987.72 726.976,986.184C725.747,984.494 724.672,982.651 723.75,980.654C722.828,978.657 721.983,976.736 721.215,974.893C719.218,969.824 717.375,964.409 715.685,958.648C713.995,952.887 712.574,946.973 711.422,940.905C710.27,934.837 709.348,928.807 708.657,922.816C707.966,916.825 707.62,911.141 707.62,905.765C707.62,902.846 707.85,899.044 708.311,894.359C708.772,889.673 709.387,884.604 710.155,879.15C710.923,873.697 711.844,868.128 712.92,862.444C713.995,856.76 715.186,851.461 716.491,846.545C717.797,841.629 719.218,837.366 720.754,833.756C722.291,830.146 723.98,827.727 725.824,826.498C727.36,825.422 730.202,824.424 734.35,823.502C738.497,822.58 743.336,821.774 748.866,821.083C754.397,820.391 760.311,819.777 766.609,819.239C772.908,818.702 778.899,818.241 784.583,817.857C790.267,817.473 795.413,817.204 800.021,817.05C804.63,816.897 808.01,816.82 810.16,816.82C813.079,816.82 817.035,816.973 822.027,817.281C827.02,817.588 832.435,818.087 838.272,818.778C844.11,819.47 850.024,820.315 856.015,821.313C862.006,822.312 867.575,823.502 872.721,824.885C877.867,826.267 882.284,827.803 885.971,829.493C889.658,831.183 891.962,833.026 892.884,835.023C893.652,836.713 894.381,839.133 895.073,842.282C895.764,845.431 896.34,849.003 896.801,852.997C897.262,856.991 897.684,861.215 898.068,865.67C898.452,870.125 898.76,874.388 898.99,878.459C899.22,882.53 899.412,886.255 899.566,889.635C899.72,893.014 899.797,895.703 899.797,897.7ZM858.55,905.304C858.55,902.232 858.396,898.967 858.089,895.511C857.782,892.054 856.783,889.02 855.094,886.409C853.865,884.565 850.907,883.106 846.222,882.031C841.537,880.955 836.391,880.187 830.783,879.726C825.176,879.266 819.761,878.997 814.538,878.92C809.315,878.843 805.628,878.805 803.478,878.805C801.788,878.805 798.831,878.958 794.606,879.266C790.382,879.573 785.927,880.072 781.242,880.763C776.556,881.455 772.216,882.3 768.222,883.298C764.228,884.297 761.77,885.487 760.849,886.87C759.927,887.945 759.197,889.98 758.66,892.976C758.122,895.972 757.661,899.198 757.277,902.654C756.893,906.11 756.624,909.413 756.471,912.562C756.317,915.712 756.24,917.977 756.24,919.36C756.24,920.589 756.279,922.432 756.355,924.89C756.432,927.348 756.624,929.883 756.931,932.494C757.239,935.106 757.584,937.564 757.968,939.868C758.352,942.172 758.928,943.862 759.697,944.937C760.157,945.705 761.54,946.397 763.844,947.011C766.149,947.626 768.952,948.202 772.255,948.739C775.558,949.277 779.052,949.7 782.739,950.007C786.426,950.314 789.998,950.583 793.454,950.813C796.911,951.044 799.983,951.197 802.671,951.274C805.36,951.351 807.241,951.389 808.317,951.389C810.16,951.389 813.348,951.236 817.88,950.929C822.411,950.621 827.173,950.122 832.166,949.431C837.159,948.739 841.767,947.895 845.992,946.896C850.216,945.898 852.943,944.707 854.172,943.324C855.094,942.249 855.862,939.983 856.476,936.527C857.091,933.07 857.551,929.307 857.859,925.236C858.166,921.165 858.358,917.248 858.435,913.484C858.512,909.72 858.55,906.994 858.55,905.304Z" style="fill:rgb(56,64,56);fill-rule:nonzero;"/>
                </g>
                <g transform="matrix(1,-0.112745,0,1,-8.067,105.033)">
                    <path d="M1102.34,920.051C1102.34,928.807 1102.15,937.487 1101.77,946.09C1101.38,954.692 1100.58,963.372 1099.35,972.128C1096.89,973.971 1094.43,975.699 1091.97,977.312C1089.52,978.925 1086.98,980.654 1084.37,982.497C1082.22,983.88 1079.88,985.454 1077.34,987.221C1074.81,988.987 1072.16,990.716 1069.39,992.405C1066.63,994.095 1063.82,995.593 1060.98,996.899C1058.14,998.205 1055.49,999.088 1053.03,999.549C1050.73,1000.16 1047.65,1000.43 1043.81,1000.36C1039.97,1000.28 1036.75,1000.24 1034.14,1000.24C1027.68,1000.55 1021.23,1000.78 1014.78,1000.93C1008.33,1001.09 1001.72,1001.16 994.963,1001.16C991.891,1001.16 988.357,1001.2 984.363,1001.28C980.369,1001.35 976.759,1001.01 973.533,1000.24C972.612,1000.09 971.075,999.357 968.925,998.051C966.774,996.745 964.355,995.132 961.666,993.212C958.978,991.292 956.174,989.218 953.256,986.99C950.337,984.763 947.533,982.612 944.845,980.538C942.157,978.465 939.852,976.621 937.932,975.008C936.012,973.395 934.668,972.281 933.9,971.667C933.132,963.525 932.556,955.422 932.172,947.357C931.788,939.292 931.595,931.189 931.595,923.047C931.595,907.224 932.172,891.555 933.324,876.04C934.476,860.524 935.743,844.932 937.126,829.263L984.594,828.111C983.058,837.942 981.982,848.35 981.368,859.334C980.753,870.317 980.446,880.879 980.446,891.017C980.446,892.707 980.523,895.664 980.677,899.889C980.83,904.113 981.137,908.607 981.598,913.369C982.059,918.131 982.635,922.509 983.326,926.503C984.018,930.497 984.901,933.109 985.976,934.338C986.437,934.799 987.628,935.221 989.548,935.605C991.468,935.989 993.773,936.335 996.461,936.642C999.149,936.949 1002.03,937.18 1005.1,937.333C1008.17,937.487 1011.09,937.602 1013.86,937.679C1016.62,937.756 1019.08,937.833 1021.23,937.909C1023.38,937.986 1024.92,938.025 1025.84,938.025L1029.76,938.025C1031.6,938.025 1033.48,937.986 1035.4,937.909C1037.32,937.833 1039.13,937.717 1040.82,937.564C1042.51,937.41 1043.66,937.103 1044.28,936.642C1046.12,935.413 1047.5,932.418 1048.42,927.655C1049.34,922.893 1050.04,917.67 1050.5,911.986C1050.96,906.302 1051.19,900.849 1051.19,895.626L1051.19,884.335C1051.19,880.802 1051.23,877.269 1051.3,873.735C1051.38,870.202 1051.42,866.669 1051.42,863.136C1051.42,855.916 1051.34,848.811 1051.19,841.821C1051.03,834.831 1050.8,827.727 1050.5,820.507C1053.72,820.814 1056.91,821.006 1060.06,821.083C1063.21,821.159 1066.4,821.198 1069.62,821.198C1073.46,821.198 1077.26,821.121 1081.03,820.967C1084.79,820.814 1088.52,820.353 1092.2,819.585C1095.43,836.022 1097.93,852.651 1099.69,869.472C1101.46,886.294 1102.34,903.153 1102.34,920.051Z" style="fill:rgb(56,64,56);fill-rule:nonzero;"/>
                </g>
                <g transform="matrix(0.989,-0.147918,0.147918,0.989,-131.419,171.304)">
                    <path d="M1246.36,990.332C1228.08,991.714 1209.91,993.02 1191.86,994.249C1173.81,995.478 1155.65,996.63 1137.37,997.705C1136.6,968.364 1135.99,939.215 1135.52,910.258C1135.06,881.301 1134.22,852.075 1132.99,822.58C1143.28,822.427 1153.42,822.12 1163.41,821.659C1173.39,821.198 1183.45,820.583 1193.59,819.815C1191.9,831.183 1190.33,842.589 1188.87,854.034C1187.41,865.478 1186.3,876.961 1185.53,888.483C1184.91,898.161 1184.41,907.8 1184.03,917.401C1183.64,927.002 1183.3,936.642 1182.99,946.32C1193.13,946.627 1203.15,946.781 1213.06,946.781C1222.97,946.781 1232.92,946.934 1242.9,947.242L1246.36,990.332Z" style="fill:rgb(56,64,56);fill-rule:nonzero;"/>
                </g>
            </g>
        </g>
        <g id="FULL" transform="matrix(1,0,0,1,8.95209,-8.95209)">
            <g transform="matrix(0.993948,-0.109849,0.109849,0.993948,-38.8622,78.7578)">
                <path d="M695.365,281.35C730.579,281.35 759.168,330.969 759.168,392.087C759.168,453.205 730.579,502.825 695.365,502.825C660.152,502.825 631.563,453.205 631.563,392.087C631.563,330.969 660.152,281.35 695.365,281.35ZM736.475,386.871C736.647,381.229 732.206,376.51 726.564,376.338C720.923,376.167 716.204,380.608 716.032,386.249L715.554,401.975C715.383,407.616 719.824,412.335 725.465,412.507C731.106,412.678 735.826,408.237 735.997,402.596L736.475,386.871Z" style="fill:rgb(56,64,56);"/>
            </g>
            <g transform="matrix(0.960018,0,-0.12645,0.960018,104.476,13.4031)">
                <path d="M1054.13,450.056C1026.08,485.522 1003.97,502.086 951.63,502.086C870.368,502.086 804.343,436.162 804.343,354.901C804.343,298.305 847.358,233.738 899.474,208.63C899.809,208.468 900.156,208.327 900.513,208.207C900.513,208.207 955.231,189.296 1129.37,205.838C1132.43,206.129 1135.39,207.727 1137.47,210.214C1137.47,210.214 1177.73,258.363 1172.84,317.635C1172.57,320.869 1170.74,323.582 1167.91,324.944C1167.91,324.944 1136.11,340.23 1101.18,361.279C1095.5,373.889 1069.64,430.456 1054.13,450.056ZM1036.96,435.928C1053.71,414.758 1082.87,348.406 1082.87,348.406C1083.59,346.776 1084.77,345.429 1086.29,344.508C1114.8,327.186 1129.16,317.375 1139.66,312.152C1140.97,273.3 1120.31,240.876 1112.45,230.006C957.51,215.714 915.386,226.3 909.979,227.893C863.535,250.577 817.506,309.33 817.506,359.769C817.506,427.975 872.829,483.4 941.035,483.4C986.612,483.4 1012.53,466.814 1036.96,435.928Z" style="fill:rgb(56,64,56);"/>
            </g>
            <path d="M524.718,281.137C566.21,185.15 666.727,135.933 681.238,129.235C694.206,116.8 797.783,22.017 942.17,22.017C1034.7,22.017 1142.4,88.389 1213.54,159.852C1242.09,188.533 1264.76,217.991 1278.37,244.132C1288.07,262.759 1293.2,279.905 1293.2,294.156C1293.2,328.955 1276.9,359.74 1257.03,384.026C1235.33,410.54 1211.77,436.843 1211.77,436.843L1213.09,510.487C1214.19,515.851 1210.77,521.1 1205.41,522.262C1205.41,522.262 1076.5,550.248 1076.5,550.248C1039.65,624.737 1007.34,649.395 1007.34,649.395C1004.61,651.516 1000.98,652.075 997.737,650.874C980.838,644.616 965.589,629.236 953.697,612.662C948.364,605.23 943.693,597.608 939.801,590.669C918.332,683.183 890.676,711.723 890.676,711.723C887.502,715.086 882.437,715.834 878.426,713.533C841.227,692.189 807.229,651.704 787.152,624.648C784.523,662.001 772.384,682.627 772.384,682.627C769.802,687.111 764.226,688.885 759.527,686.717C704.823,661.468 680.798,605.373 674.561,588.239L563.678,550.515C558.864,548.878 556.045,543.888 557.127,538.92L588.547,394.677L525.343,290.284C523.667,287.516 523.434,284.108 524.718,281.137ZM561.12,284.403L607.721,387.73C609.047,389.92 609.482,392.536 608.937,395.038L596.561,534.456L685.66,570.889C688.742,571.938 691.12,574.42 692.036,577.543C692.036,577.543 699.863,623.701 749.864,652.265C754.357,640.149 761.411,628.061 766.897,593.074C767.614,588.499 769.321,584.177 773.718,582.722C778.114,581.266 782.934,583.02 785.368,586.96C785.368,586.96 817.126,644.81 869.292,678.891C878.488,665.025 895.119,639.443 926.146,558.434C927.732,554.293 930.57,550.786 934.983,550.348C939.396,549.91 943.57,552.431 945.237,556.541C945.237,556.541 948.627,568.864 963.966,590.241C972.206,601.725 982.096,612.909 993.382,618.948C1002.98,609.631 1026.45,586.866 1060.65,537.144C1062.39,534.612 1064.52,532.383 1067.53,531.731L1167.56,504.813L1177.07,434.115C1177.07,429.851 1178.38,426.897 1181.77,423.506C1200.98,404.299 1200.5,403.834 1227.08,371.36C1244.2,350.443 1258.73,324.128 1258.73,294.156C1258.73,282.499 1254.09,268.606 1246.16,253.369C1233.32,228.712 1211.83,201.015 1184.89,173.962C1117.33,106.092 1030.05,42.017 942.17,42.017C796.014,42.017 694.055,144.668 694.055,144.668C693.157,145.573 692.093,146.297 690.922,146.803C690.922,146.803 604.224,190.969 561.12,284.403Z" style="fill:rgb(56,64,56);"/>
            <path d="M911.744,412.923L885.2,427.159L856.728,374.071L883.272,359.835C883.272,359.835 928.779,335.391 981.841,327.545L1011.64,323.14L1020.45,382.733L990.652,387.139C948.185,393.418 911.744,412.923 911.744,412.923Z" style="fill:rgb(56,64,56);"/>
            <g transform="matrix(1,0,0.186047,1,-12.2793,-21.6276)">
                <circle cx="995.395" cy="283.859" r="13.778" style="fill:rgb(56,64,56);"/>
            </g>
            <g transform="matrix(0.7108,0,0.132242,0.7108,331.554,56.4594)">
                <circle cx="995.395" cy="283.859" r="13.778" style="fill:rgb(56,64,56);"/>
            </g>
        </g>
    </g>
</svg>
